<mxfile host="Electron" modified="2024-02-01T21:04:22.665Z" agent="Mozilla/5.0 (Windows NT 10.0; Win64; x64) AppleWebKit/537.36 (KHTML, like Gecko) draw.io/23.0.2 Chrome/120.0.6099.109 Electron/28.1.0 Safari/537.36" etag="o9wk7EvM1K0RoRf2G3t-" version="23.0.2" type="device">
  <diagram name="PÃ¡gina-1" id="B-iIGg5FEzL6OlP3MqI_">
    <mxGraphModel dx="2261" dy="836" grid="1" gridSize="10" guides="1" tooltips="1" connect="1" arrows="1" fold="1" page="1" pageScale="1" pageWidth="827" pageHeight="1169" math="0" shadow="0">
      <root>
        <mxCell id="0" />
        <mxCell id="1" parent="0" />
        <mxCell id="wrRrLDAonIUFUoA5fln_-28" value="" style="shape=ext;double=1;whiteSpace=wrap;html=1;aspect=fixed;" vertex="1" parent="1">
          <mxGeometry y="200" width="827" height="827" as="geometry" />
        </mxCell>
        <mxCell id="wrRrLDAonIUFUoA5fln_-16" value="" style="rounded=0;whiteSpace=wrap;html=1;" vertex="1" parent="1">
          <mxGeometry x="640" y="525" width="160" height="425" as="geometry" />
        </mxCell>
        <mxCell id="wrRrLDAonIUFUoA5fln_-10" value="" style="rounded=1;whiteSpace=wrap;html=1;" vertex="1" parent="1">
          <mxGeometry x="210" y="230" width="450" height="250" as="geometry" />
        </mxCell>
        <mxCell id="wrRrLDAonIUFUoA5fln_-2" value="" style="shape=flexArrow;endArrow=classic;html=1;rounded=0;" edge="1" parent="1">
          <mxGeometry width="50" height="50" relative="1" as="geometry">
            <mxPoint x="-40" y="340" as="sourcePoint" />
            <mxPoint x="180" y="340" as="targetPoint" />
          </mxGeometry>
        </mxCell>
        <mxCell id="wrRrLDAonIUFUoA5fln_-4" value="EEG DenoiseNet" style="text;html=1;strokeColor=none;fillColor=none;align=center;verticalAlign=middle;whiteSpace=wrap;rounded=0;" vertex="1" parent="1">
          <mxGeometry x="60" y="300" width="60" height="30" as="geometry" />
        </mxCell>
        <mxCell id="wrRrLDAonIUFUoA5fln_-5" value="PRE-PROCESAMIENTO DE LOS DATOS" style="whiteSpace=wrap;html=1;aspect=fixed;" vertex="1" parent="1">
          <mxGeometry x="230" y="280" width="140" height="140" as="geometry" />
        </mxCell>
        <mxCell id="wrRrLDAonIUFUoA5fln_-7" value="DATOS LIMPIOS" style="whiteSpace=wrap;html=1;aspect=fixed;" vertex="1" parent="1">
          <mxGeometry x="455" y="260" width="85" height="85" as="geometry" />
        </mxCell>
        <mxCell id="wrRrLDAonIUFUoA5fln_-8" value="DATOS CONTAMINADOS" style="whiteSpace=wrap;html=1;aspect=fixed;" vertex="1" parent="1">
          <mxGeometry x="450" y="360" width="100" height="100" as="geometry" />
        </mxCell>
        <mxCell id="wrRrLDAonIUFUoA5fln_-11" value="Tratamiento de los datos" style="text;html=1;strokeColor=none;fillColor=none;align=center;verticalAlign=middle;whiteSpace=wrap;rounded=0;" vertex="1" parent="1">
          <mxGeometry x="300" y="240" width="180" height="30" as="geometry" />
        </mxCell>
        <mxCell id="wrRrLDAonIUFUoA5fln_-13" value="CNN" style="shape=hexagon;perimeter=hexagonPerimeter2;whiteSpace=wrap;html=1;fixedSize=1;" vertex="1" parent="1">
          <mxGeometry x="660" y="542.5" width="120" height="80" as="geometry" />
        </mxCell>
        <mxCell id="wrRrLDAonIUFUoA5fln_-14" value="LSTM" style="shape=hexagon;perimeter=hexagonPerimeter2;whiteSpace=wrap;html=1;fixedSize=1;" vertex="1" parent="1">
          <mxGeometry x="660" y="637.5" width="120" height="80" as="geometry" />
        </mxCell>
        <mxCell id="wrRrLDAonIUFUoA5fln_-15" value="FEED FORWARD" style="shape=hexagon;perimeter=hexagonPerimeter2;whiteSpace=wrap;html=1;fixedSize=1;" vertex="1" parent="1">
          <mxGeometry x="660" y="737.5" width="120" height="80" as="geometry" />
        </mxCell>
        <mxCell id="wrRrLDAonIUFUoA5fln_-17" value="REDES NEURONALES" style="text;html=1;strokeColor=none;fillColor=none;align=center;verticalAlign=middle;whiteSpace=wrap;rounded=0;" vertex="1" parent="1">
          <mxGeometry x="630" y="950" width="180" height="30" as="geometry" />
        </mxCell>
        <mxCell id="wrRrLDAonIUFUoA5fln_-21" value="" style="edgeStyle=elbowEdgeStyle;elbow=horizontal;endArrow=classic;html=1;curved=0;rounded=0;endSize=8;startSize=8;exitX=1;exitY=0.5;exitDx=0;exitDy=0;entryX=0.5;entryY=0;entryDx=0;entryDy=0;" edge="1" parent="1" source="wrRrLDAonIUFUoA5fln_-10" target="wrRrLDAonIUFUoA5fln_-16">
          <mxGeometry width="50" height="50" relative="1" as="geometry">
            <mxPoint x="690" y="400" as="sourcePoint" />
            <mxPoint x="740" y="350" as="targetPoint" />
            <Array as="points">
              <mxPoint x="720" y="430" />
            </Array>
          </mxGeometry>
        </mxCell>
        <mxCell id="wrRrLDAonIUFUoA5fln_-22" value="" style="shape=flexArrow;endArrow=classic;html=1;rounded=0;exitX=1;exitY=0.25;exitDx=0;exitDy=0;entryX=0;entryY=0.633;entryDx=0;entryDy=0;entryPerimeter=0;" edge="1" parent="1" source="wrRrLDAonIUFUoA5fln_-5" target="wrRrLDAonIUFUoA5fln_-7">
          <mxGeometry width="50" height="50" relative="1" as="geometry">
            <mxPoint x="388.5" y="340" as="sourcePoint" />
            <mxPoint x="438.5" y="290" as="targetPoint" />
          </mxGeometry>
        </mxCell>
        <mxCell id="wrRrLDAonIUFUoA5fln_-23" value="" style="shape=flexArrow;endArrow=classic;html=1;rounded=0;exitX=1;exitY=0.25;exitDx=0;exitDy=0;entryX=0;entryY=0.5;entryDx=0;entryDy=0;" edge="1" parent="1">
          <mxGeometry width="50" height="50" relative="1" as="geometry">
            <mxPoint x="370" y="390" as="sourcePoint" />
            <mxPoint x="450" y="390" as="targetPoint" />
          </mxGeometry>
        </mxCell>
        <mxCell id="wrRrLDAonIUFUoA5fln_-24" value="" style="shape=flexArrow;endArrow=classic;html=1;rounded=0;exitX=-0.006;exitY=0.395;exitDx=0;exitDy=0;exitPerimeter=0;" edge="1" parent="1">
          <mxGeometry width="50" height="50" relative="1" as="geometry">
            <mxPoint x="630" y="587.875" as="sourcePoint" />
            <mxPoint x="500.96" y="585" as="targetPoint" />
          </mxGeometry>
        </mxCell>
        <mxCell id="wrRrLDAonIUFUoA5fln_-25" value="" style="html=1;whiteSpace=wrap;shape=isoCube2;backgroundOutline=1;isoAngle=15;" vertex="1" parent="1">
          <mxGeometry x="425.04" y="553" width="54.96" height="62.5" as="geometry" />
        </mxCell>
        <mxCell id="wrRrLDAonIUFUoA5fln_-31" value="" style="shape=hexagon;perimeter=hexagonPerimeter2;whiteSpace=wrap;html=1;fixedSize=1;" vertex="1" parent="1">
          <mxGeometry x="660" y="840" width="120" height="80" as="geometry" />
        </mxCell>
        <mxCell id="wrRrLDAonIUFUoA5fln_-32" value="" style="shape=flexArrow;endArrow=classic;html=1;rounded=0;exitX=-0.006;exitY=0.395;exitDx=0;exitDy=0;exitPerimeter=0;" edge="1" parent="1">
          <mxGeometry width="50" height="50" relative="1" as="geometry">
            <mxPoint x="630" y="677.875" as="sourcePoint" />
            <mxPoint x="500.96" y="675" as="targetPoint" />
          </mxGeometry>
        </mxCell>
        <mxCell id="wrRrLDAonIUFUoA5fln_-34" value="" style="html=1;whiteSpace=wrap;shape=isoCube2;backgroundOutline=1;isoAngle=15;" vertex="1" parent="1">
          <mxGeometry x="425.04" y="646.25" width="54.96" height="62.5" as="geometry" />
        </mxCell>
        <mxCell id="wrRrLDAonIUFUoA5fln_-35" value="" style="shape=flexArrow;endArrow=classic;html=1;rounded=0;exitX=-0.006;exitY=0.395;exitDx=0;exitDy=0;exitPerimeter=0;" edge="1" parent="1">
          <mxGeometry width="50" height="50" relative="1" as="geometry">
            <mxPoint x="630" y="777.875" as="sourcePoint" />
            <mxPoint x="500.96" y="775" as="targetPoint" />
          </mxGeometry>
        </mxCell>
        <mxCell id="wrRrLDAonIUFUoA5fln_-36" value="" style="html=1;whiteSpace=wrap;shape=isoCube2;backgroundOutline=1;isoAngle=15;" vertex="1" parent="1">
          <mxGeometry x="425.04" y="746.25" width="54.96" height="62.5" as="geometry" />
        </mxCell>
        <mxCell id="wrRrLDAonIUFUoA5fln_-37" value="" style="shape=flexArrow;endArrow=classic;html=1;rounded=0;exitX=-0.006;exitY=0.395;exitDx=0;exitDy=0;exitPerimeter=0;" edge="1" parent="1">
          <mxGeometry width="50" height="50" relative="1" as="geometry">
            <mxPoint x="630" y="880.375" as="sourcePoint" />
            <mxPoint x="500.96" y="877.5" as="targetPoint" />
          </mxGeometry>
        </mxCell>
        <mxCell id="wrRrLDAonIUFUoA5fln_-38" value="" style="html=1;whiteSpace=wrap;shape=isoCube2;backgroundOutline=1;isoAngle=15;" vertex="1" parent="1">
          <mxGeometry x="425.04" y="848.75" width="54.96" height="62.5" as="geometry" />
        </mxCell>
      </root>
    </mxGraphModel>
  </diagram>
</mxfile>
